<?xml version="1.0" encoding="UTF-8" standalone="no"?>
<!-- Created with Inkscape (http://www.inkscape.org/) -->

<svg
   xmlns:dc="http://purl.org/dc/elements/1.1/"
   xmlns:cc="http://creativecommons.org/ns#"
   xmlns:rdf="http://www.w3.org/1999/02/22-rdf-syntax-ns#"
   xmlns:svg="http://www.w3.org/2000/svg"
   xmlns="http://www.w3.org/2000/svg"
   xmlns:sodipodi="http://sodipodi.sourceforge.net/DTD/sodipodi-0.dtd"
   xmlns:inkscape="http://www.inkscape.org/namespaces/inkscape"
   id="svg2"
   version="1.1"
   inkscape:version="0.91 r13725"
   xml:space="preserve"
   width="80"
   height="80"
   viewBox="0 0 80 80"
   sodipodi:docname="Elegant_circle-icons.ai.svg"><metadata
     id="metadata8"><rdf:RDF><cc:Work
         rdf:about=""><dc:format>image/svg+xml</dc:format><dc:type
           rdf:resource="http://purl.org/dc/dcmitype/StillImage" /></cc:Work></rdf:RDF></metadata><defs
     id="defs6"><clipPath
       clipPathUnits="userSpaceOnUse"
       id="clipPath16"><path
         d="M 0,64 64,64 64,0 0,0 0,64 Z"
         id="path18"
         inkscape:connector-curvature="0" /></clipPath></defs><sodipodi:namedview
     pagecolor="#ffffff"
     bordercolor="#666666"
     borderopacity="1"
     objecttolerance="10"
     gridtolerance="10"
     guidetolerance="10"
     inkscape:pageopacity="0"
     inkscape:pageshadow="2"
     inkscape:window-width="1920"
     inkscape:window-height="1065"
     id="namedview4"
     showgrid="false"
     inkscape:zoom="8"
     inkscape:cx="75.288876"
     inkscape:cy="36.741949"
     inkscape:window-x="0"
     inkscape:window-y="14"
     inkscape:window-maximized="0"
     inkscape:current-layer="g10" /><g
     id="g10"
     inkscape:groupmode="layer"
     inkscape:label="Elegant_circle-icons"
     transform="matrix(1.25,0,0,-1.25,0,80)"><g
       id="g12"><g
         id="g14"
         clip-path="url(#clipPath16)"><g
           id="g20"
           transform="translate(28.2581,21.9906)"><path
             d="m 0,0 c -0.211,-0.004 -0.423,-0.009 -0.626,-0.009 -0.394,0 -0.755,0.009 -1.1,0.022 l -4.981,-3.886 c -0.561,-0.57 -1.14,-1.159 -1.98,-1.159 -0.494,0 -0.957,0.213 -1.377,0.633 -0.422,0.422 -0.634,0.888 -0.632,1.384 0.003,0.836 0.59,1.413 1.158,1.972 l 0.138,0.137 3.738,4.801 C -5.684,4.424 -5.693,5.014 -5.681,5.652 -6.118,5.299 -6.56,4.917 -7.012,4.465 c -5.074,-5.074 -8.74,-13.311 -8.119,-13.931 0.64,-0.64 8.857,3.045 13.931,8.119 0.458,0.458 0.844,0.905 1.2,1.347"
             style="fill:#ffffff;fill-opacity:1;fill-rule:nonzero;stroke:none"
             id="path22"
             inkscape:connector-curvature="0" /></g><g
           id="g24"
           transform="translate(19.8047,19.2012)"><path
             d="m 0,0 c 0.11,0.105 0.227,0.224 0.32,0.318 l 0.284,0.276 12.665,9.849 c 0.423,0.513 0.918,2.815 0.668,3.487 -0.083,0.025 -0.262,0.064 -0.591,0.064 -1.187,0 -2.579,-0.469 -2.905,-0.727 L 0.318,0.32 C 0.223,0.227 0.104,0.11 0,0"
             style="fill:#ffffff;fill-opacity:1;fill-rule:nonzero;stroke:none"
             id="path26"
             inkscape:connector-curvature="0" /></g><g
           id="g28"
           transform="translate(29.6703,22.0503)"><path
             d="m 0,0 c -1.762,-3.669 -3.661,-8.273 -3.661,-8.273 -0.665,-1.208 0.33,-2.085 2.593,-0.936 l 8.132,4.435 c 4.38,2.435 5.228,3.071 5.17,8.028 L 12.126,4.031 C 8.182,1.241 3.716,0.245 0,0"
             style="fill:#ffffff;fill-opacity:1;fill-rule:nonzero;stroke:none"
             id="path30"
             inkscape:connector-curvature="0" /></g><g
           id="g32"
           transform="translate(14.5315,25.2549)"><path
             d="m 0,0 c 0,0 4.455,1.838 8.092,3.575 0.207,3.533 1.119,8.145 3.973,12.245 l -0.538,0.075 C 6.57,15.953 5.934,15.105 3.499,10.725 L -0.936,2.593 C -2.085,0.33 -1.208,-0.665 0,0"
             style="fill:#ffffff;fill-opacity:1;fill-rule:nonzero;stroke:none"
             id="path34"
             inkscape:connector-curvature="0" /></g><g
           id="g36"
           transform="translate(46.6755,43.0928)"><path
             d="m 0,0 c -0.781,-0.781 -2.047,-0.781 -2.828,0 -0.781,0.781 -0.781,2.047 0,2.828 0.781,0.781 2.047,0.781 2.828,0 C 0.781,2.047 0.781,0.781 0,0 m -4.243,-7.071 c -1.562,-1.562 -4.094,-1.562 -5.656,0 -1.563,1.562 -1.563,4.095 0,5.657 1.562,1.562 4.094,1.562 5.656,0 1.562,-1.562 1.562,-4.095 0,-5.657 M 0.993,6.674 c -4.813,0 -12.324,-2.329 -17.437,-7.443 -4.227,-4.226 -5.376,-9.81 -5.591,-13.813 l 4.16,5.345 c 0.801,0.8 2.896,1.34 4.35,1.34 0.93,0 1.589,-0.207 2.015,-0.633 1.319,-1.319 0.319,-5.339 -0.707,-6.365 l -0.093,-0.082 -5.247,-4.094 c 4.242,0.217 9.644,1.442 13.808,5.607 C 3.824,-5.892 4.288,5.103 3.328,6.331 3.224,6.413 2.562,6.674 0.993,6.674"
             style="fill:#ffffff;fill-opacity:1;fill-rule:nonzero;stroke:none"
             id="path38"
             inkscape:connector-curvature="0" /></g><g
           id="g40"
           transform="translate(42.9268,29.6289)"><path
             d="m 0,0 c -4.165,-4.165 -9.566,-5.391 -13.809,-5.607 l 5.247,4.094 0.093,0.082 c 1.027,1.026 2.027,5.046 0.707,6.365 -0.426,0.425 -1.085,0.632 -2.014,0.632 -1.454,0 -3.549,-0.539 -4.35,-1.339 l -4.161,-5.345 c 0.215,4.003 1.365,9.587 5.592,13.813 5.113,5.114 12.624,7.443 17.437,7.443 1.569,0 2.231,-0.261 2.335,-0.343 C 8.037,18.566 7.572,7.572 0,0 m -6.193,-12.353 -8.131,-4.435 c -2.263,-1.149 -3.258,-0.272 -2.594,0.936 0,0 1.9,4.604 3.662,8.273 3.716,0.246 8.182,1.242 12.125,4.032 l 0.108,-0.778 c 0.058,-4.957 -0.789,-5.593 -5.17,-8.028 m -6.488,15.192 c 0.326,0.259 1.718,0.727 2.905,0.727 0.329,0 0.508,-0.039 0.59,-0.064 C -8.936,2.83 -9.43,0.528 -9.854,0.016 l -12.664,-9.85 -0.284,-0.275 c -0.094,-0.095 -0.21,-0.213 -0.32,-0.319 0.104,0.111 0.223,0.227 0.318,0.321 L -12.681,2.839 Z M -29.8,-17.105 c -0.62,0.621 3.045,8.857 8.12,13.931 0.452,0.452 0.894,0.835 1.33,1.187 -0.011,-0.637 -0.002,-1.227 0.019,-1.756 l -3.737,-4.801 -0.139,-0.138 c -0.567,-0.558 -1.154,-1.135 -1.157,-1.971 -0.002,-0.496 0.21,-0.962 0.632,-1.384 0.42,-0.42 0.882,-0.633 1.377,-0.633 0.839,0 1.418,0.589 1.979,1.158 l 4.981,3.887 c 0.345,-0.013 0.707,-0.022 1.1,-0.022 0.204,0 0.416,0.005 0.626,0.009 -0.356,-0.442 -0.742,-0.89 -1.2,-1.347 -5.074,-5.074 -13.291,-8.76 -13.931,-8.12 m 0.468,15.324 4.436,8.132 c 2.434,4.38 3.071,5.228 8.028,5.17 l 0.538,-0.075 c -2.854,-4.1 -3.767,-8.712 -3.973,-12.245 -3.638,-1.737 -8.092,-3.575 -8.092,-3.575 -1.208,-0.665 -2.085,0.33 -0.937,2.593 m 18.405,36.152 c -17.673,0 -32,-14.327 -32,-32 0,-17.673 14.327,-32 32,-32 17.673,0 32,14.327 32,32 0,17.673 -14.327,32 -32,32"
             style="fill:#4f5d73;fill-opacity:1;fill-rule:nonzero;stroke:none"
             id="path42"
             inkscape:connector-curvature="0" /></g><g
           id="g44"
           transform="translate(36.776,41.6786)"><path
             d="m 0,0 c -1.562,-1.562 -1.562,-4.095 0,-5.657 1.562,-1.562 4.095,-1.562 5.657,0 1.562,1.562 1.562,4.095 0,5.657 C 4.095,1.562 1.562,1.562 0,0"
             style="fill:#4f5d73;fill-opacity:1;fill-rule:nonzero;stroke:none"
             id="path46"
             inkscape:connector-curvature="0" /></g><g
           id="g48"
           transform="translate(43.847,45.9211)"><path
             d="m 0,0 c -0.781,-0.781 -0.781,-2.047 0,-2.828 0.781,-0.781 2.047,-0.781 2.828,0 0.781,0.781 0.781,2.047 0,2.828 C 2.047,0.781 0.781,0.781 0,0"
             style="fill:#4f5d73;fill-opacity:1;fill-rule:nonzero;stroke:none"
             id="path50"
             inkscape:connector-curvature="0" /></g></g></g></g></svg>